<svg width="32" height="28" viewBox="0 0 32 28" fill="none" xmlns="http://www.w3.org/2000/svg">
<g clip-path="url(#clip0_52_239)">
<path d="M10.1883 14.1203C10.1883 14.7875 9.65781 15.2961 8.98516 15.2961C8.48203 15.2961 8.11016 15.0117 8.11016 14.4758C8.11016 13.8086 8.62969 13.2727 9.29688 13.2727C9.80547 13.2727 10.1883 13.5844 10.1883 14.1203ZM4.40234 11.468H4.14531C4.06328 11.468 3.98125 11.5227 3.97031 11.6156L3.73516 13.0758L4.18359 13.0594C4.78516 13.0594 5.25 12.9773 5.35938 12.2828C5.48516 11.55 5.02031 11.468 4.40234 11.468ZM19.9336 11.468H19.6875C19.5891 11.468 19.5234 11.5227 19.5125 11.6156L19.2828 13.0758L19.7203 13.0594C20.4312 13.0594 20.9234 12.8953 20.9234 12.075C20.918 11.4953 20.3984 11.468 19.9336 11.468ZM31.5 4.375V23.625C31.5 25.0742 30.3242 26.25 28.875 26.25H2.625C1.17578 26.25 0 25.0742 0 23.625V4.375C0 2.92578 1.17578 1.75 2.625 1.75H28.875C30.3242 1.75 31.5 2.92578 31.5 4.375ZM7.01641 11.7797C7.01641 10.6312 6.13047 10.2484 5.11875 10.2484H2.93125C2.79453 10.2484 2.65781 10.3578 2.64688 10.5055L1.75 16.0891C1.73359 16.1984 1.81563 16.3078 1.925 16.3078H2.96406C3.11172 16.3078 3.24844 16.1492 3.26484 15.9961L3.51094 14.5414C3.56562 14.1477 4.23281 14.2844 4.49531 14.2844C6.05937 14.2844 7.01641 13.3547 7.01641 11.7797ZM11.6211 12.2609H10.582C10.3742 12.2609 10.3633 12.5617 10.3523 12.7094C10.0352 12.2445 9.57578 12.1625 9.05625 12.1625C7.71641 12.1625 6.69375 13.3383 6.69375 14.6344C6.69375 15.7008 7.36094 16.3953 8.42734 16.3953C8.91953 16.3953 9.53203 16.1273 9.87656 15.7445C9.84922 15.8266 9.82188 16.0016 9.82188 16.0836C9.82188 16.2094 9.87656 16.3023 9.99687 16.3023H10.9375C11.0852 16.3023 11.2109 16.1437 11.2383 15.9906L11.7961 12.4742C11.8125 12.3703 11.7305 12.2609 11.6211 12.2609ZM13.8359 17.6148L17.3195 12.5508C17.3469 12.5234 17.3469 12.4961 17.3469 12.4578C17.3469 12.3648 17.2648 12.2664 17.1719 12.2664H16.1219C16.0289 12.2664 15.9305 12.3211 15.8758 12.4031L14.4266 14.5359L13.825 12.4852C13.7812 12.3648 13.6609 12.2664 13.5242 12.2664H12.5016C12.4086 12.2664 12.3266 12.3648 12.3266 12.4578C12.3266 12.5234 13.393 15.5641 13.4859 15.8539C13.3383 16.0617 12.3648 17.418 12.3648 17.582C12.3648 17.6805 12.4469 17.757 12.5398 17.757H13.5898C13.6883 17.7516 13.7812 17.6969 13.8359 17.6148ZM22.5477 11.7797C22.5477 10.6312 21.6617 10.2484 20.65 10.2484H18.4789C18.3312 10.2484 18.1945 10.3578 18.1781 10.5055L17.2922 16.0836C17.2812 16.193 17.3633 16.3023 17.4672 16.3023H18.5883C18.6977 16.3023 18.7797 16.2203 18.807 16.1273L19.0531 14.5414C19.1078 14.1477 19.775 14.2844 20.0375 14.2844C21.5906 14.2844 22.5477 13.3547 22.5477 11.7797ZM27.1523 12.2609H26.1133C25.9055 12.2609 25.8945 12.5617 25.8781 12.7094C25.5773 12.2445 25.1125 12.1625 24.582 12.1625C23.2422 12.1625 22.2195 13.3383 22.2195 14.6344C22.2195 15.7008 22.8867 16.3953 23.9531 16.3953C24.4617 16.3953 25.0742 16.1273 25.4023 15.7445C25.3859 15.8266 25.3477 16.0016 25.3477 16.0836C25.3477 16.2094 25.4023 16.3023 25.5227 16.3023H26.4688C26.6164 16.3023 26.7422 16.1437 26.7695 15.9906L27.3273 12.4742C27.3438 12.3703 27.2617 12.2609 27.1523 12.2609ZM29.75 10.4398C29.75 10.3305 29.668 10.2484 29.575 10.2484H28.5633C28.4812 10.2484 28.3992 10.3141 28.3883 10.3961L27.5023 16.0836L27.4859 16.1109C27.4859 16.2094 27.568 16.3023 27.6773 16.3023H28.5797C28.7164 16.3023 28.8531 16.1437 28.8641 15.9906L29.75 10.4563V10.4398ZM24.8281 13.2727C24.1609 13.2727 23.6414 13.8031 23.6414 14.4758C23.6414 15.0063 24.0242 15.2961 24.5273 15.2961C25.1836 15.2961 25.7141 14.793 25.7141 14.1203C25.7195 13.5844 25.3367 13.2727 24.8281 13.2727Z" fill="#1A1A1A"/>
</g>
<defs>
<clipPath id="clip0_52_239">
<rect width="31.5" height="28" fill="white"/>
</clipPath>
</defs>
</svg>
