<svg width="37" height="28" viewBox="0 0 37 28" fill="none" xmlns="http://www.w3.org/2000/svg">
<g clip-path="url(#clip0_52_241)">
<path d="M14.1683 0.358597L9.455 19.9974H6.38009L4.06063 4.32379C3.92 3.36074 3.7978 3.00632 3.36988 2.59909C2.67041 1.93544 1.51531 1.31477 0.5 0.928667L0.568484 0.358597H5.51905C6.14905 0.358597 6.71633 1.09126 6.86061 2.35986L8.08616 13.7252L11.1118 0.358597H14.1683ZM18.3252 0.358597L15.9201 19.9974H13.0108L15.4162 0.358597H18.3252ZM26.2165 13.5854C26.2286 8.40319 22.1139 8.11558 22.1408 5.80018C22.1506 5.09625 22.5345 4.34688 23.3749 4.1553C23.7912 4.06123 24.9412 3.98632 26.2438 5.0346L26.7534 0.867509C26.0535 0.425404 25.1528 0 24.0325 0C21.1567 0 19.1338 2.66786 19.1176 6.49109C19.0988 9.31909 20.5625 10.8952 21.6634 11.8371C22.7972 12.7989 23.1775 13.4172 23.1723 14.2768C23.1641 15.5945 22.2666 16.1779 21.4323 16.1995C19.9692 16.24 19.1211 15.5088 18.4446 14.9584L17.9165 19.2635C18.5972 19.8083 19.8515 20.2816 21.1508 20.3056C24.208 20.3056 26.2075 17.6682 26.2165 13.5854ZM33.8103 19.9976H36.5L34.1502 0.358597H31.6685C31.1089 0.358597 30.6385 0.925965 30.4298 1.79814L26.0648 19.9974H29.1196L29.7255 17.0638H33.4577L33.8103 19.9976ZM30.5632 13.0396L32.0949 5.6646L32.9748 13.0396H30.5632ZM22.0484 25.4034H20.8663V27.3248H22.1885V27.9025H20.468V22.5719H22.1207V23.1496H20.8663V24.8338H22.0482L22.0484 25.4034ZM22.7992 22.2875H23.1974V27.9022H22.7992V22.2875ZM24.2023 26.1149C24.2113 27.0564 24.5511 27.4437 24.9538 27.4437C25.2393 27.4437 25.4158 27.3567 25.5609 27.2462L25.6332 27.7446C25.4929 27.8551 25.2485 27.9894 24.8996 27.9894C24.2251 27.9894 23.8222 27.2067 23.8222 26.0518C23.8222 24.8974 24.2113 23.9955 24.8499 23.9955C25.5699 23.9955 25.7555 25.0873 25.7555 25.7909C25.7555 25.9332 25.7509 26.0358 25.7418 26.1152L24.2023 26.1149ZM25.3705 25.6168C25.3752 25.1821 25.2665 24.4939 24.8181 24.4939C24.4106 24.4939 24.2385 25.1344 24.2067 25.6168H25.3705ZM27.9234 27.7679C27.8194 27.8551 27.5883 27.9897 27.2941 27.9897C26.633 27.9897 26.2029 27.2067 26.2029 26.0361C26.2029 24.8576 26.6645 23.9958 27.38 23.9958C27.6155 23.9958 27.8237 24.0982 27.9324 24.2013L27.8421 24.7311C27.7467 24.6442 27.5973 24.5489 27.38 24.5489C26.8773 24.5489 26.6059 25.2054 26.6059 25.9968C26.6059 26.8822 26.9319 27.428 27.3665 27.428C27.593 27.428 27.7423 27.3332 27.8555 27.2462L27.9234 27.7679ZM29.0411 23.1572V24.0746H29.6115V24.6041H29.0411V26.6685C29.0411 27.1435 29.1182 27.412 29.3399 27.412C29.4485 27.412 29.5121 27.3965 29.571 27.3644L29.5891 27.8949C29.5121 27.942 29.3899 27.9894 29.2359 27.9894C29.0501 27.9894 28.9006 27.8787 28.8057 27.6972C28.697 27.4832 28.6517 27.1435 28.6517 26.6926V24.6041H28.312V24.0746H28.6517V23.3628L29.0411 23.1572ZM30.1679 25.269C30.1679 24.8181 30.1632 24.4307 30.1498 24.0746H30.4985L30.5168 24.8335H30.53C30.6299 24.32 30.8742 23.9955 31.1412 23.9955C31.1821 23.9955 31.2139 24.0036 31.2502 24.0112V24.668C31.2094 24.6518 31.1688 24.6518 31.1141 24.6518C30.8337 24.6518 30.6341 25.0155 30.58 25.538C30.5706 25.6453 30.5661 25.7537 30.5663 25.8622V27.9027H30.1679V25.269ZM33.6992 25.9567C33.6992 27.3725 33.133 27.9894 32.6079 27.9894C32.0191 27.9894 31.5575 27.23 31.5575 26.0204C31.5575 24.7468 32.0419 23.9958 32.6442 23.9958C33.2735 23.9958 33.6992 24.7938 33.6992 25.9567ZM31.9648 25.9968C31.9648 26.8351 32.2365 27.468 32.6259 27.468C33.0065 27.468 33.2915 26.8427 33.2915 25.9808C33.2915 25.3324 33.1059 24.5174 32.6349 24.5174C32.1688 24.5174 31.9648 25.2771 31.9648 25.9968ZM34.3098 25.1108C34.3098 24.7078 34.305 24.3912 34.2915 24.0751H34.6447L34.6674 24.7078H34.6764C34.7851 24.3517 35.0386 23.996 35.4009 23.996C35.7041 23.996 36.1752 24.3124 36.1752 25.6247V27.9027H35.7768V25.6961C35.7768 25.0797 35.6454 24.5651 35.2697 24.5651C35.0115 24.5651 34.8076 24.8895 34.7354 25.2769C34.7172 25.3641 34.7082 25.4825 34.7082 25.6013V27.9027H34.3098V25.1108Z" fill="#1A1F71"/>
</g>
<defs>
<clipPath id="clip0_52_241">
<rect width="36" height="28" fill="white" transform="translate(0.5)"/>
</clipPath>
</defs>
</svg>
