<svg width="37" height="28" viewBox="0 0 37 28" fill="none" xmlns="http://www.w3.org/2000/svg">
<g clip-path="url(#clip0_52_243)">
<path d="M7.04822 27.8615V26.0082C7.04822 25.2977 6.61569 24.8345 5.87433 24.8345C5.50371 24.8345 5.10214 24.958 4.82411 25.3596C4.60799 25.0198 4.29915 24.8345 3.83581 24.8345C3.52683 24.8345 3.21812 24.9271 2.97091 25.2669V24.8963H2.32227V27.8615H2.97091V26.2244C2.97091 25.6994 3.24894 25.4522 3.68146 25.4522C4.1137 25.4522 4.3301 25.7302 4.3301 26.2244V27.8615H4.97875V26.2244C4.97875 25.6994 5.28745 25.4522 5.68902 25.4522C6.12154 25.4522 6.33766 25.7302 6.33766 26.2244V27.8615H7.04822ZM16.6542 24.8963H15.6041V24.0005H14.9555V24.8963H14.3686V25.483H14.9553V26.8422C14.9553 27.5218 15.2334 27.9232 15.9747 27.9232C16.2528 27.9232 16.5615 27.8306 16.7779 27.7071L16.5924 27.151C16.4071 27.2746 16.191 27.3055 16.0365 27.3055C15.7277 27.3055 15.6041 27.1202 15.6041 26.8112V25.483H16.6542V24.8963ZM22.1523 24.8344C21.7817 24.8344 21.5346 25.0198 21.3801 25.2669V24.8963H20.7315V27.8615H21.3801V26.1936C21.3801 25.6994 21.5963 25.4214 21.9978 25.4214C22.1214 25.4214 22.2759 25.4523 22.3994 25.4831L22.5847 24.8655C22.4612 24.8345 22.2759 24.8345 22.1523 24.8345M13.8435 25.1435C13.5345 24.9272 13.1021 24.8346 12.6388 24.8346C11.8976 24.8346 11.4034 25.2053 11.4034 25.7921C11.4034 26.2864 11.774 26.5643 12.4227 26.657L12.7315 26.688C13.0713 26.7496 13.2566 26.8423 13.2566 26.9968C13.2566 27.2129 13.0095 27.3674 12.577 27.3674C12.1446 27.3674 11.8048 27.2129 11.5886 27.0586L11.2797 27.5527C11.6195 27.7998 12.0829 27.9234 12.5461 27.9234C13.411 27.9234 13.9053 27.5219 13.9053 26.9659C13.9053 26.4408 13.5037 26.1627 12.8859 26.0702L12.577 26.0392C12.299 26.0082 12.0829 25.9466 12.0829 25.7613C12.0829 25.5451 12.299 25.4215 12.6388 25.4215C13.0095 25.4215 13.3802 25.5759 13.5655 25.6686L13.8435 25.1435ZM31.079 24.8346C30.7082 24.8346 30.4611 25.0199 30.3066 25.267V24.8964H29.658V27.8616H30.3066V26.1937C30.3066 25.6995 30.5229 25.4215 30.9243 25.4215C31.048 25.4215 31.2025 25.4525 31.326 25.4833L31.5114 24.8656C31.3878 24.8346 31.2025 24.8346 31.079 24.8346ZM22.801 26.379C22.801 27.2747 23.4186 27.9234 24.3763 27.9234C24.8087 27.9234 25.1175 27.8308 25.4263 27.5837L25.1175 27.0586C24.8704 27.2439 24.6234 27.3365 24.3453 27.3365C23.8202 27.3365 23.4496 26.9659 23.4496 26.379C23.4496 25.8231 23.8202 25.4523 24.3453 25.4215C24.6234 25.4215 24.8704 25.5141 25.1175 25.6995L25.4263 25.1744C25.1175 24.9272 24.8087 24.8346 24.3763 24.8346C23.4186 24.8346 22.801 25.4833 22.801 26.379ZM28.7932 26.379V24.8964H28.1446V25.267C27.9283 24.9891 27.6195 24.8346 27.2179 24.8346C26.384 24.8346 25.7353 25.4833 25.7353 26.379C25.7353 27.2747 26.384 27.9234 27.2179 27.9234C27.6503 27.9234 27.9593 27.769 28.1446 27.491V27.8616H28.7932V26.379ZM26.4148 26.379C26.4148 25.8539 26.7546 25.4215 27.3105 25.4215C27.8356 25.4215 28.2064 25.8231 28.2064 26.379C28.2064 26.9041 27.8356 27.3365 27.3105 27.3365C26.7546 27.3055 26.4148 26.9041 26.4148 26.379ZM18.662 24.8346C17.7971 24.8346 17.1793 25.4523 17.1793 26.379C17.1793 27.3057 17.797 27.9234 18.6928 27.9234C19.1252 27.9234 19.5577 27.7998 19.8975 27.5219L19.5886 27.0586C19.3415 27.2439 19.0326 27.3674 18.7238 27.3674C18.3222 27.3674 17.9207 27.1821 17.8279 26.6569H20.0211V26.41C20.052 25.4523 19.4961 24.8346 18.662 24.8346ZM18.6619 25.3906C19.0633 25.3906 19.3415 25.6378 19.4031 26.1011H17.8587C17.9205 25.6995 18.1985 25.3906 18.6619 25.3906ZM34.7544 26.379V23.7227H34.1058V25.267C33.8895 24.9891 33.5807 24.8346 33.1791 24.8346C32.3452 24.8346 31.6965 25.4833 31.6965 26.379C31.6965 27.2747 32.3452 27.9234 33.1791 27.9234C33.6116 27.9234 33.9205 27.769 34.1058 27.491V27.8616H34.7544V26.379ZM32.3761 26.379C32.3761 25.8539 32.7158 25.4215 33.2718 25.4215C33.7969 25.4215 34.1676 25.8231 34.1676 26.379C34.1676 26.9041 33.7969 27.3365 33.2718 27.3365C32.7158 27.3055 32.3761 26.9041 32.3761 26.379ZM10.6927 26.379V24.8964H10.0441V25.267C9.82781 24.9891 9.51897 24.8346 9.1174 24.8346C8.28345 24.8346 7.63481 25.4833 7.63481 26.379C7.63481 27.2747 8.28345 27.9234 9.1174 27.9234C9.54992 27.9234 9.85877 27.769 10.0441 27.491V27.8616H10.6927V26.379ZM8.28345 26.379C8.28345 25.8539 8.62325 25.4215 9.17917 25.4215C9.70428 25.4215 10.075 25.8231 10.075 26.379C10.075 26.9041 9.70428 27.3365 9.17917 27.3365C8.62325 27.3055 8.28345 26.9041 8.28345 26.379Z" fill="#1A1A1A"/>
<path d="M13.627 2.37891H23.3566V19.8615H13.627V2.37891Z" fill="#FF5F00"/>
<path d="M14.2452 11.1197C14.2452 7.5676 15.9131 4.41696 18.4767 2.37831C16.5927 0.895719 14.2144 0 11.6198 0C5.47288 0 0.5 4.97288 0.5 11.1197C0.5 17.2663 5.47288 22.2393 11.6197 22.2393C14.2142 22.2393 16.5925 21.3436 18.4767 19.8609C15.9131 17.8532 14.2452 14.6717 14.2452 11.1197Z" fill="#EB001B"/>
<path d="M36.4845 11.1197C36.4845 17.2663 31.5116 22.2393 25.3649 22.2393C22.7703 22.2393 20.392 21.3436 18.5078 19.8609C21.1024 17.8224 22.7395 14.6717 22.7395 11.1197C22.7395 7.5676 21.0714 4.41696 18.5078 2.37831C20.3918 0.895719 22.7703 0 25.3649 0C31.5116 0 36.4845 5.00384 36.4845 11.1197Z" fill="#F79E1B"/>
</g>
<defs>
<clipPath id="clip0_52_243">
<rect width="36.0201" height="28" fill="white" transform="translate(0.5)"/>
</clipPath>
</defs>
</svg>
