<svg width="28" height="28" viewBox="0 0 28 28" fill="none" xmlns="http://www.w3.org/2000/svg">
<path d="M9.10065 2.33398H18.9007C22.634 2.33398 25.6673 5.36732 25.6673 9.10065V18.9007C25.6673 20.6953 24.9544 22.4164 23.6854 23.6854C22.4164 24.9544 20.6953 25.6673 18.9007 25.6673H9.10065C5.36732 25.6673 2.33398 22.634 2.33398 18.9007V9.10065C2.33398 7.30602 3.0469 5.58489 4.3159 4.3159C5.58489 3.0469 7.30602 2.33398 9.10065 2.33398ZM8.86732 4.66732C7.75341 4.66732 6.68512 5.10982 5.89747 5.89747C5.10982 6.68512 4.66732 7.75341 4.66732 8.86732V19.134C4.66732 21.4557 6.54565 23.334 8.86732 23.334H19.134C20.2479 23.334 21.3162 22.8915 22.1038 22.1038C22.8915 21.3162 23.334 20.2479 23.334 19.134V8.86732C23.334 6.54565 21.4557 4.66732 19.134 4.66732H8.86732ZM20.1257 6.41732C20.5124 6.41732 20.8834 6.57096 21.1568 6.84445C21.4303 7.11794 21.584 7.48888 21.584 7.87565C21.584 8.26242 21.4303 8.63336 21.1568 8.90685C20.8834 9.18034 20.5124 9.33398 20.1257 9.33398C19.7389 9.33398 19.3679 9.18034 19.0945 8.90685C18.821 8.63336 18.6673 8.26242 18.6673 7.87565C18.6673 7.48888 18.821 7.11794 19.0945 6.84445C19.3679 6.57096 19.7389 6.41732 20.1257 6.41732ZM14.0007 8.16732C15.5477 8.16732 17.0315 8.7819 18.1254 9.87586C19.2194 10.9698 19.834 12.4536 19.834 14.0007C19.834 15.5477 19.2194 17.0315 18.1254 18.1254C17.0315 19.2194 15.5477 19.834 14.0007 19.834C12.4536 19.834 10.9698 19.2194 9.87586 18.1254C8.7819 17.0315 8.16732 15.5477 8.16732 14.0007C8.16732 12.4536 8.7819 10.9698 9.87586 9.87586C10.9698 8.7819 12.4536 8.16732 14.0007 8.16732ZM14.0007 10.5007C13.0724 10.5007 12.1822 10.8694 11.5258 11.5258C10.8694 12.1822 10.5007 13.0724 10.5007 14.0007C10.5007 14.9289 10.8694 15.8191 11.5258 16.4755C12.1822 17.1319 13.0724 17.5007 14.0007 17.5007C14.9289 17.5007 15.8191 17.1319 16.4755 16.4755C17.1319 15.8191 17.5007 14.9289 17.5007 14.0007C17.5007 13.0724 17.1319 12.1822 16.4755 11.5258C15.8191 10.8694 14.9289 10.5007 14.0007 10.5007Z" fill="#1A1A1A"/>
</svg>
