<svg width="32" height="33" viewBox="0 0 32 33" fill="none" xmlns="http://www.w3.org/2000/svg">
<rect x="0.5" y="0.849998" width="31" height="31" rx="15.5" stroke="white"/>
<path d="M7.71 9.75H22.924C24.302 9.75 25.297 11.02 24.919 12.298L23.265 17.898C23.01 18.758 22.196 19.35 21.27 19.35H12.112C11.185 19.35 10.37 18.757 10.116 17.898L7.71 9.75ZM7.71 9.75L7 7.35M20.5 25.35C20.8978 25.35 21.2794 25.192 21.5607 24.9107C21.842 24.6294 22 24.2478 22 23.85C22 23.4522 21.842 23.0706 21.5607 22.7893C21.2794 22.508 20.8978 22.35 20.5 22.35C20.1022 22.35 19.7206 22.508 19.4393 22.7893C19.158 23.0706 19 23.4522 19 23.85C19 24.2478 19.158 24.6294 19.4393 24.9107C19.7206 25.192 20.1022 25.35 20.5 25.35ZM12.5 25.35C12.8978 25.35 13.2794 25.192 13.5607 24.9107C13.842 24.6294 14 24.2478 14 23.85C14 23.4522 13.842 23.0706 13.5607 22.7893C13.2794 22.508 12.8978 22.35 12.5 22.35C12.1022 22.35 11.7206 22.508 11.4393 22.7893C11.158 23.0706 11 23.4522 11 23.85C11 24.2478 11.158 24.6294 11.4393 24.9107C11.7206 25.192 12.1022 25.35 12.5 25.35Z" stroke="white" stroke-width="1.5" stroke-linecap="round" stroke-linejoin="round"/>
</svg>
