<svg width="18" height="16" viewBox="0 0 18 16" fill="none" xmlns="http://www.w3.org/2000/svg">
<path d="M9.96878 15.281C9.89905 15.2114 9.84373 15.1287 9.80599 15.0376C9.76825 14.9466 9.74882 14.849 9.74882 14.7504C9.74882 14.6519 9.76825 14.5543 9.80599 14.4632C9.84373 14.3722 9.89905 14.2894 9.96878 14.2198L15.4391 8.75042L0.749411 8.75042C0.550499 8.75042 0.359732 8.6714 0.21908 8.53075C0.0784283 8.3901 -0.000589371 8.19933 -0.000589371 8.00042C-0.000589371 7.8015 0.0784283 7.61074 0.21908 7.47009C0.359732 7.32943 0.550499 7.25042 0.749411 7.25042L15.4391 7.25042L9.96878 1.78104C9.82805 1.64031 9.74899 1.44944 9.74899 1.25042C9.74899 1.05139 9.82805 0.860523 9.96878 0.719792C10.1095 0.579062 10.3004 0.5 10.4994 0.5C10.6984 0.5 10.8893 0.579062 11.03 0.719792L17.78 7.46979C17.8498 7.53945 17.9051 7.62216 17.9428 7.71321C17.9806 7.80426 18 7.90186 18 8.00042C18 8.09898 17.9806 8.19657 17.9428 8.28762C17.9051 8.37867 17.8498 8.46139 17.78 8.53104L11.03 15.281C10.9604 15.3508 10.8777 15.4061 10.7866 15.4438C10.6956 15.4816 10.598 15.501 10.4994 15.501C10.4008 15.501 10.3033 15.4816 10.2122 15.4438C10.1212 15.4061 10.0384 15.3508 9.96878 15.281Z" fill="black"/>
</svg>
