<svg width="96" height="16" viewBox="0 0 96 16" fill="none" xmlns="http://www.w3.org/2000/svg">
<path d="M3.88398 13.9997L4.96732 9.31634L1.33398 6.16634L6.13398 5.74967L8.00065 1.33301L9.86732 5.74967L14.6673 6.16634L11.034 9.31634L12.1173 13.9997L8.00065 11.5163L3.88398 13.9997Z" fill="#221530"/>
<path d="M23.884 13.9997L24.9673 9.31634L21.334 6.16634L26.134 5.74967L28.0007 1.33301L29.8673 5.74967L34.6673 6.16634L31.034 9.31634L32.1173 13.9997L28.0007 11.5163L23.884 13.9997Z" fill="#221530"/>
<path d="M43.884 13.9997L44.9673 9.31634L41.334 6.16634L46.134 5.74967L48.0007 1.33301L49.8673 5.74967L54.6673 6.16634L51.034 9.31634L52.1173 13.9997L48.0007 11.5163L43.884 13.9997Z" fill="#221530"/>
<path d="M63.884 13.9997L64.9673 9.31634L61.334 6.16634L66.134 5.74967L68.0007 1.33301L69.8673 5.74967L74.6673 6.16634L71.034 9.31634L72.1173 13.9997L68.0007 11.5163L63.884 13.9997Z" fill="#221530"/>
<path d="M83.884 13.9997L84.9673 9.31634L81.334 6.16634L86.134 5.74967L88.0007 1.33301L89.8673 5.74967L94.6673 6.16634L91.034 9.31634L92.1173 13.9997L88.0007 11.5163L83.884 13.9997Z" fill="#221530"/>
</svg>
